<?xml version="1.0" standalone="no"?><!DOCTYPE svg PUBLIC "-//W3C//DTD SVG 1.1//EN" "http://www.w3.org/Graphics/SVG/1.1/DTD/svg11.dtd"><svg t="1527565858385" class="icon" style="" viewBox="0 0 1024 1024" version="1.1" xmlns="http://www.w3.org/2000/svg" p-id="12244" xmlns:xlink="http://www.w3.org/1999/xlink" width="200" height="200"><defs><style type="text/css"></style></defs><path d="M904.5 761.4H692.7c-10.5 0-19-8.5-19-19V602.6c0-10.5 8.5-19 19-19h211.8c10.5 0 19 8.5 19 19v139.8c0 10.5-8.5 19-19 19z" fill="#E5E8EA" p-id="12245"></path><path d="M288.2 281.8m-67.7 0a67.7 67.7 0 1 0 135.4 0 67.7 67.7 0 1 0-135.4 0Z" fill="#E5E8EA" p-id="12246"></path><path d="M517.3 833.5c-77.9 0-151.6-29.5-208.2-83.4-58.4-55.7-91.6-130.7-93.6-211.4-0.2-7.7 5.9-14.1 13.7-14.3h0.3c7.6 0 13.8 6 14 13.7 1.8 73.2 31.9 141.3 84.9 191.8 53 50.5 122.5 77.4 195.7 75.6 37-0.9 72.7-9 106.1-24.1 7-3.2 15.3 0 18.5 7 3.2 7 0 15.3-7 18.5-36.9 16.6-76.2 25.6-117 26.6h-7.4zM798.2 480.6c-6.4 0-12.1-4.4-13.6-10.9-13.9-60.6-48.7-115.3-97.9-153.9-49.9-39.2-112.3-59.9-175.8-58.4-40.9 1-80.1 10.7-116.4 29-6.9 3.5-15.3 0.7-18.8-6.2s-0.7-15.3 6.2-18.8c40-20.1 83.2-30.9 128.3-32 35.7-0.9 70.8 4.5 104.3 15.8 32.4 11 62.5 27.3 89.5 48.5 54.2 42.6 92.5 102.9 107.9 169.7 1.7 7.5-3 15-10.5 16.8-1.1 0.3-2.1 0.4-3.2 0.4z" fill="#1888FF" p-id="12247"></path><path d="M855.8 789.2H696c-6 0-11-4.9-11-11v-2.1c0-6 4.9-11 11-11h159.8c6 0 11 4.9 11 11v2.1c0 6.1-4.9 11-11 11z" fill="" p-id="12248"></path><path d="M266.5 263.2m-67 0a67 67 0 1 0 134 0 67 67 0 1 0-134 0Z" fill="#FFFFFF" p-id="12249"></path><path d="M266.5 342.2c-43.6 0-79-35.4-79-79s35.4-79 79-79 79 35.4 79 79c0 43.5-35.5 79-79 79z m0-134c-30.3 0-55 24.7-55 55s24.7 55 55 55 55-24.7 55-55-24.7-55-55-55z" fill="" p-id="12250"></path><path d="M404.1 497.8c0-76.3-61.6-138.2-137.6-138.2s-137.6 61.9-137.6 138.2h275.2z" fill="#FFFFFF" p-id="12251"></path><path d="M404.1 509.8H128.8c-6.6 0-12-5.4-12-12 0-82.8 67.1-150.2 149.6-150.2S416.1 415 416.1 497.8c0 6.6-5.4 12-12 12z m-262.7-24h250.1c-6-64-59.8-114.2-125.1-114.2-65.2 0-119 50.2-125 114.2z" fill="" p-id="12252"></path><path d="M881.8 731.9H670c-10.5 0-19-8.5-19-19V573c0-10.5 8.5-19 19-19h211.8c10.5 0 19 8.5 19 19v139.8c0 10.5-8.5 19.1-19 19.1z" fill="#1888FF" p-id="12253"></path><path d="M881.8 743.9H670c-17.1 0-31-13.9-31-31V573c0-17.1 13.9-31 31-31h211.8c17.1 0 31 13.9 31 31v139.8c0 17.1-13.9 31.1-31 31.1zM670 566c-3.9 0-7 3.1-7 7v139.8c0 3.9 3.1 7 7 7h211.8c3.9 0 7-3.1 7-7V573c0-3.9-3.1-7-7-7H670z" fill="" p-id="12254"></path><path d="M516.9 710.8c-89.2 0-166.8-66.8-177.9-157.5-0.9-7.7 4.5-14.7 12.2-15.6 7.7-0.9 14.7 4.5 15.6 12.2 10.2 82.8 85.8 142 168.7 131.8 20.3-2.5 39.5-8.9 57-19 6.7-3.9 15.3-1.6 19.1 5.2 3.9 6.7 1.6 15.3-5.2 19.1-20.8 12-43.6 19.6-67.6 22.5-7.3 0.8-14.7 1.3-21.9 1.3zM673.8 492.6c-5.8 0-11.3-3.7-13.3-9.5-10.9-32.6-33-60.7-62.1-79.3-29.5-18.8-65-26.8-99.8-22.6-22.4 2.8-43.4 10.2-62.4 22.2-6.5 4.1-15.2 2.2-19.3-4.3s-2.2-15.2 4.3-19.3c22.5-14.2 47.4-23.1 74-26.3 41.3-5.1 83.3 4.4 118.2 26.8 34.5 22 60.7 55.4 73.6 94 2.5 7.3-1.5 15.3-8.8 17.7-1.5 0.4-3 0.6-4.4 0.6z" fill="#B5D9F4" p-id="12255"></path><path d="M293 287.5c0 7.7-6.9 14-15.4 14s-15.4-6.3-15.4-14" fill="#E9007D" p-id="12256"></path></svg>