<?xml version="1.0" standalone="no"?><!DOCTYPE svg PUBLIC "-//W3C//DTD SVG 1.1//EN" "http://www.w3.org/Graphics/SVG/1.1/DTD/svg11.dtd"><svg t="1533115639973" class="icon" style="" viewBox="0 0 1024 1024" version="1.1" xmlns="http://www.w3.org/2000/svg" p-id="85577" xmlns:xlink="http://www.w3.org/1999/xlink" width="200" height="200"><defs><style type="text/css"></style></defs><path d="M706.5 620c0-79.9 64.7-144.6 144.6-144.6" fill="#515151" p-id="85578"></path><path d="M851.1 475.4V620H706.5" fill="#515151" p-id="85579"></path><path d="M340.1 472.1L388.4 620H171.5s19.1-93.3 168.6-147.9" fill="#515151" p-id="85580"></path><path d="M851.1 693.7H171.5c-8.7 0-15.8-7.1-15.8-15.8V620c0-82 66.3-115.3 140.1-144.8 70.2-28.1 256-142.2 257.8-143.4 2.5-1.5 5.4-2.3 8.3-2.3h72.3c7.5 0 14 5.3 15.5 12.7 0.5 2.4 12.8 59.6 56.8 59.6 44.4 0 56.7-59 56.8-59.6 1.5-7.4 8-12.7 15.5-12.7h72.3c8.7 0 15.8 7.1 15.8 15.8v332.6c0 8.7-7 15.8-15.8 15.8z m-663.8-31.6h648v-301H791c-9.8 30.3-35.8 72.3-84.4 72.3-48.7 0-74.6-42-84.4-72.3h-55.7c-27.9 17.1-191 116.3-258.9 143.5-81.4 32.6-120.2 58.1-120.2 115.5v42z" fill="#515151" p-id="85581"></path><path d="M171.5 604.2h679.6v31.6H171.5zM465.5 544.3c-4 0-8.1-1.5-11.2-4.6l-80.2-80.2c-6.2-6.2-6.2-16.2 0-22.3s16.2-6.2 22.3 0l80.2 80.2c6.2 6.2 6.2 16.2 0 22.3-3 3.1-7 4.6-11.1 4.6zM560.8 493.7c-4 0-8.1-1.5-11.2-4.6l-80.2-80.2c-6.2-6.2-6.2-16.2 0-22.3s16.2-6.2 22.3 0l80.2 80.2c6.2 6.2 6.2 16.2 0 22.3-3 3-7 4.6-11.1 4.6z" fill="#515151" p-id="85582"></path></svg>