<?xml version="1.0" standalone="no"?><!DOCTYPE svg PUBLIC "-//W3C//DTD SVG 1.1//EN" "http://www.w3.org/Graphics/SVG/1.1/DTD/svg11.dtd"><svg t="1533113877525" class="icon" style="" viewBox="0 0 1024 1024" version="1.1" xmlns="http://www.w3.org/2000/svg" p-id="64785" xmlns:xlink="http://www.w3.org/1999/xlink" width="200" height="200"><defs><style type="text/css"></style></defs><path d="M661.333333 938.666667c-12.8 0-25.6-4.266667-34.133333-12.8l-93.866667-106.666667C512 793.6 460.8 768 426.666667 768H213.333333c-72.533333 0-128-55.466667-128-128V213.333333c0-72.533333 55.466667-128 128-128h597.333334c72.533333 0 128 55.466667 128 128v426.666667c0 72.533333-55.466667 128-128 128h-42.666667c-25.6 0-42.666667-17.066667-42.666667-42.666667s17.066667-42.666667 42.666667-42.666666h42.666667c25.6 0 42.666667-21.333333 42.666666-42.666667V213.333333c0-25.6-17.066667-42.666667-42.666666-42.666666H213.333333c-25.6 0-42.666667 21.333333-42.666666 42.666666v426.666667c0 25.6 17.066667 42.666667 42.666666 42.666667h213.333334c59.733333 0 132.266667 34.133333 174.933333 81.066666l93.866667 106.666667c17.066667 17.066667 12.8 42.666667-4.266667 59.733333-8.533333 4.266667-21.333333 8.533333-29.866667 8.533334z" fill="#3A9EFB" p-id="64786"></path><path d="M298.666667 469.333333c-25.6 0-42.666667-17.066667-42.666667-42.666666s17.066667-42.666667 42.666667-42.666667 42.666667 17.066667 42.666666 42.666667-17.066667 42.666667-42.666666 42.666666z m213.333333 0c-25.6 0-42.666667-17.066667-42.666667-42.666666s17.066667-42.666667 42.666667-42.666667 42.666667 17.066667 42.666667 42.666667-17.066667 42.666667-42.666667 42.666666z m213.333333 0c-25.6 0-42.666667-17.066667-42.666666-42.666666s17.066667-42.666667 42.666666-42.666667 42.666667 17.066667 42.666667 42.666667-17.066667 42.666667-42.666667 42.666666z" fill="#9CCEFD" p-id="64787"></path><path d="M725.333333 490.666667c-34.133333 0-64-29.866667-64-64s29.866667-64 64-64 64 29.866667 64 64-29.866667 64-64 64z m0-85.333334c-12.8 0-21.333333 8.533333-21.333333 21.333334s8.533333 21.333333 21.333333 21.333333 21.333333-8.533333 21.333334-21.333333-8.533333-21.333333-21.333334-21.333334z m-213.333333 85.333334c-34.133333 0-64-29.866667-64-64s29.866667-64 64-64 64 29.866667 64 64-29.866667 64-64 64z m0-85.333334c-12.8 0-21.333333 8.533333-21.333333 21.333334s8.533333 21.333333 21.333333 21.333333 21.333333-8.533333 21.333333-21.333333-8.533333-21.333333-21.333333-21.333334z m-213.333333 85.333334c-34.133333 0-64-29.866667-64-64S264.533333 362.666667 298.666667 362.666667s64 29.866667 64 64-29.866667 64-64 64z m0-85.333334c-12.8 0-21.333333 8.533333-21.333334 21.333334s8.533333 21.333333 21.333334 21.333333 21.333333-8.533333 21.333333-21.333333-8.533333-21.333333-21.333333-21.333334z" fill="#9CCEFD" p-id="64788"></path></svg>