<?xml version="1.0" standalone="no"?><!DOCTYPE svg PUBLIC "-//W3C//DTD SVG 1.1//EN" "http://www.w3.org/Graphics/SVG/1.1/DTD/svg11.dtd"><svg t="1527575612550" class="icon" style="" viewBox="0 0 1024 1024" version="1.1" xmlns="http://www.w3.org/2000/svg" p-id="15360" xmlns:xlink="http://www.w3.org/1999/xlink" width="200" height="200"><defs><style type="text/css"></style></defs><path d="M512 979.9c-63.2 0-124.5-12.4-182.2-36.8C274 919.6 224 885.8 181 842.9c-43-43-76.7-93-100.3-148.7-24.4-57.7-36.8-119-36.8-182.1S56.3 387.7 80.7 330C104.2 274.1 138 224.1 181 181.1s93-76.7 148.8-100.3C387.5 56.4 448.8 44 512 44s124.5 12.4 182.2 36.8C750 104.4 800 138.2 843 181.1c43 43 76.7 93 100.3 148.7 24.4 57.7 36.8 119 36.8 182.1 0 55.7-9.7 110.2-28.8 162-7.6 20.6-26.7 33.9-48.7 33.9-20.7 0-38.9-11.7-47.4-30.6 0 0 0-0.1-0.1-0.1-5.6-12.5-6.1-26.4-1.3-39.3 14.8-40.1 22.3-82.5 22.3-125.9 0-28.5-3.2-56.6-9.7-83.8-2.1 5.8-4.7 11.4-8 16.9l-76.1 127.9L844.5 708c2.6 5.7 4.7 11.7 6.2 17.8l18.9 41.8c8.5 18.7 5.1 40.7-8.5 56-43.5 48.7-95.5 87.1-154.7 114.1-61.1 28-126.6 42.2-194.4 42.2z m6.5-104.1c46.9-0.8 92.3-10.4 135.2-28.5 12.1-5.1 24-10.9 35.4-17.3L592 808l-73.5 67.8zM162.4 614.4c3.9 13.3 8.6 26.4 14 39.2 18.3 43.3 44.6 82.2 78.1 115.7 20.1 20.1 42.3 37.7 66.3 52.5l-11.2-122.2-129.8-72.8c-6.4-3.6-12.1-7.7-17.4-12.4z m202-3.3c27.4 15.3 45.4 43.2 48.3 74.4l12.4 135.1 99.7-92.1c17.7-16.3 40.6-25.3 64.6-25.3 7.1 0 14.1 0.8 21 2.4l132.4 29.9-56.7-123.3c-13.1-28.5-11.4-61.6 4.7-88.6L760.2 407l-134.8 15.9c-3.7 0.4-7.4 0.7-11.2 0.7-27.4 0-53.5-11.8-71.6-32.5l-89.5-102-12.7 63.5c5.2-4.2 11.8-6.7 18.9-6.7 2 0 4 0.2 5.9 0.6 7.8 1.6 14.6 6.1 19.1 12.8 4.4 6.7 6 14.7 4.5 22.5L475 450.7c-7.6 38.2-33.5 70.2-69.3 85.6L307.2 579l57.2 32.1z m147.6-463c-49.2 0-96.9 9.6-141.7 28.6-43.4 18.3-82.3 44.6-115.8 78s-59.7 72.4-78.1 115.7c-15.9 37.6-25.2 77.2-27.8 118 9.9-13.9 23.6-25.2 40.1-32.3l136.7-58.7 29.1-145.9c7.1-35.8 33.5-64 68.8-73.4 8.1-2.2 16.5-3.3 24.9-3.3 27.3 0 53.3 11.8 71.4 32.5l98.1 111.8 147.7-17.4c3.8-0.4 7.6-0.7 11.3-0.7 13 0 25.7 2.6 37.3 7.6-13-19.3-27.9-37.3-44.6-53.9-33.5-33.5-72.4-59.7-115.8-78-44.7-19-92.4-28.6-141.6-28.6z" fill="#FFD4D4" p-id="15361"></path><path d="M512 64.1C264.5 64.1 63.9 264.6 63.9 512S264.5 959.9 512 959.9c132.9 0 252.2-57.8 334.3-149.6 8.4-9.4 10.4-22.9 5.2-34.4l-19.7-43.6c-1.2-5.4-2.9-10.7-5.3-15.8l-64.1-139.3c-1.6-3.4-1.3-7.3 0.6-10.5l78.4-131.8c14.8-24.8 14.2-55.3-1.6-79.5s-43.3-37.2-72-33.8l-152.3 17.9c-3.7 0.4-7.4-1-9.8-3.8L504.6 220.5c-19-21.7-48.2-30.6-76.1-23.1-27.9 7.5-48.7 29.7-54.4 58l-30 150.4c-0.7 3.6-3.2 6.7-6.6 8.2l-140.9 60.5c-26.5 11.4-43.9 36.4-45.5 65.2-1.5 28.8 13.2 55.5 38.4 69.6l133.8 75c3.2 1.8 5.4 5.1 5.7 8.8l14 152.7c0.4 4.1 1.1 8.2 2.1 12.1-38.8-18.7-74-43.7-104.8-74.5-35.3-35.3-63-76.3-82.3-122-20-47.3-30.2-97.5-30.2-149.4S138 409.9 158 362.6c19.3-45.7 47-86.8 82.3-122 35.3-35.3 76.4-63 122.1-82.3 47.3-20 97.6-30.1 149.5-30.1 51.9 0 102.2 10.1 149.5 30.1 45.7 19.3 86.8 47 122.1 82.3s63 76.3 82.3 122c20 47.3 30.2 97.5 30.2 149.4 0 45.8-7.9 90.4-23.6 132.8-2.9 7.9-2.6 16.6 0.9 24.2 11.8 26 49.2 24.8 59.1-2 17.8-48.3 27.6-100.5 27.6-155 0.1-247.4-200.5-447.9-448-447.9z m0 831.8c-14.2 0-28.3-0.8-42.2-2.3l112-103.4c2.7-2.5 6.5-3.5 10.2-2.7L740 821c-24.3 17.9-50.5 32.9-78.5 44.7-47.3 20.1-97.6 30.2-149.5 30.2zM262.1 576.6l135.6-58.8c29.7-12.8 51.3-39.4 57.6-71.1l13.7-68.9c1.1-5.4-2.4-10.7-7.9-11.8-5.4-1.1-10.7 2.4-11.8 7.9l-13.7 68.9c-5 25.3-22.2 46.5-45.9 56.7l-147.5 63.9c-0.7 0.3-1.3 0.7-1.9 1.1l-19.6-11c-5.3-3-5.9-7.8-5.8-10.4 0.1-2.6 1.2-7.4 6.8-9.8l140.9-60.5c22.8-9.8 39.3-30.1 44.1-54.4l30-150.4c1.2-6 5.6-8 8.2-8.7 0.8-0.2 1.9-0.4 3.2-0.4 2.5 0 5.6 0.8 8.2 3.9l101.1 115.3c16.3 18.6 40.8 28 65.4 25.1l152.3-17.9c6.1-0.7 9.4 2.9 10.8 5.1 1.4 2.2 3.4 6.7 0.2 11.9l-78.4 131.8c-12.7 21.3-14 47.5-3.7 70l64.1 139.3c2.6 5.5 0.2 9.8-1.5 11.8s-5.3 5.3-11.3 3.9l-149.3-34c-24.2-5.5-49.5 1.3-67.7 18.1l-112.7 104c-4.5 4.1-9.3 3.2-11.7 2.2-2.4-0.9-6.6-3.4-7.2-9.5l-14-152.7c-2.3-24.7-16.5-46.7-38.2-58.8l-92.4-51.8z" fill="#FF7550" p-id="15362"></path><path d="M512 64.1C264.5 64.1 63.9 264.6 63.9 512S264.5 959.9 512 959.9c132.9 0 252.2-57.8 334.3-149.6 8.4-9.4 10.4-22.9 5.2-34.4l-19.7-43.6c-1.2-5.4-2.9-10.7-5.3-15.8l-64.1-139.3c-1.6-3.4-1.3-7.3 0.6-10.5l78.4-131.8c14.8-24.8 14.2-55.3-1.6-79.5s-43.3-37.2-72-33.8l-152.3 17.9c-3.7 0.4-7.4-1-9.8-3.8L504.6 220.5c-19-21.7-48.2-30.6-76.1-23.1-27.9 7.5-48.7 29.7-54.4 58l-30 150.4c-0.7 3.6-3.2 6.7-6.6 8.2l-140.9 60.5c-26.5 11.4-43.9 36.4-45.5 65.2-1.5 28.8 13.2 55.5 38.4 69.6l133.8 75c3.2 1.8 5.4 5.1 5.7 8.8l14 152.7c0.4 4.1 1.1 8.2 2.1 12.1-38.8-18.7-74-43.7-104.8-74.5-35.3-35.3-63-76.3-82.3-122-20-47.3-30.2-97.5-30.2-149.4S138 409.9 158 362.6c19.3-45.7 47-86.8 82.3-122 35.3-35.3 76.4-63 122.1-82.3 47.3-20 97.6-30.1 149.5-30.1 51.9 0 102.2 10.1 149.5 30.1 45.7 19.3 86.8 47 122.1 82.3s63 76.3 82.3 122c20 47.3 30.2 97.5 30.2 149.4 0 45.8-7.9 90.4-23.6 132.8-2.9 7.9-2.6 16.6 0.9 24.2 11.8 26 49.2 24.8 59.1-2 17.8-48.3 27.6-100.5 27.6-155 0.1-247.4-200.5-447.9-448-447.9z m0 831.8c-14.2 0-28.3-0.8-42.2-2.3l112-103.4c2.7-2.5 6.5-3.5 10.2-2.7L740 821c-24.3 17.9-50.5 32.9-78.5 44.7-47.3 20.1-97.6 30.2-149.5 30.2zM262.1 576.6l135.6-58.8c29.7-12.8 51.3-39.4 57.6-71.1l13.7-68.9c1.1-5.4-2.4-10.7-7.9-11.8-5.4-1.1-10.7 2.4-11.8 7.9l-13.7 68.9c-5 25.3-22.2 46.5-45.9 56.7l-147.5 63.9c-0.7 0.3-1.3 0.7-1.9 1.1l-19.6-11c-5.3-3-5.9-7.8-5.8-10.4 0.1-2.6 1.2-7.4 6.8-9.8l140.9-60.5c22.8-9.8 39.3-30.1 44.1-54.4l30-150.4c1.2-6 5.6-8 8.2-8.7 0.8-0.2 1.9-0.4 3.2-0.4 2.5 0 5.6 0.8 8.2 3.9l101.1 115.3c16.3 18.6 40.8 28 65.4 25.1l152.3-17.9c6.1-0.7 9.4 2.9 10.8 5.1 1.4 2.2 3.4 6.7 0.2 11.9l-78.4 131.8c-12.7 21.3-14 47.5-3.7 70l64.1 139.3c2.6 5.5 0.2 9.8-1.5 11.8s-5.3 5.3-11.3 3.9l-149.3-34c-24.2-5.5-49.5 1.3-67.7 18.1l-112.7 104c-4.5 4.1-9.3 3.2-11.7 2.2-2.4-0.9-6.6-3.4-7.2-9.5l-14-152.7c-2.3-24.7-16.5-46.7-38.2-58.8l-92.4-51.8z" fill="#FF7550" p-id="15363"></path></svg>