<?xml version="1.0" standalone="no"?><!DOCTYPE svg PUBLIC "-//W3C//DTD SVG 1.1//EN" "http://www.w3.org/Graphics/SVG/1.1/DTD/svg11.dtd"><svg t="1533106787543" class="icon" style="" viewBox="0 0 1024 1024" version="1.1" xmlns="http://www.w3.org/2000/svg" p-id="6147" xmlns:xlink="http://www.w3.org/1999/xlink" width="200" height="200"><defs><style type="text/css"></style></defs><path d="M495.416 117.419c-198 0-358.48 160.402-358.48 358.32 0 197.922 160.48 358.321 358.48 358.321 106.321 0 201.758-46.239 267.442-119.68 6.719-7.519 8.316-18.32 4.156-27.519l-15.758-34.879c-0.961-4.321-2.32-8.563-4.242-12.641L695.737 527.9c-1.281-2.719-1.039-5.84 0.48-8.399l62.719-105.441c11.84-19.84 11.359-44.239-1.281-63.598-12.641-19.359-34.641-29.762-57.598-27.043l-121.84 14.32c-2.961 0.321-5.922-0.796-7.84-3.039l-80.882-92.16c-15.2-17.359-38.559-24.48-60.879-18.48-22.321 6-38.961 23.761-43.52 46.402l-24 120.32c-0.558 2.879-2.558 5.36-5.281 6.559l-112.719 48.398c-21.199 9.122-35.121 29.122-36.398 52.161-1.203 23.043 10.558 44.402 30.718 55.679l107.04 60c2.558 1.442 4.32 4.082 4.558 7.043l11.203 122.16c0.321 3.278 0.879 6.559 1.68 9.68-31.039-14.961-59.199-34.961-83.84-59.601-28.242-28.239-50.402-61.04-65.84-97.598-16-37.844-24.16-78-24.16-119.524 0-41.519 8.16-81.679 24.16-119.519 15.438-36.559 37.598-69.438 65.84-97.598 28.238-28.242 61.117-50.402 97.68-65.84 37.84-16 78.078-24.082 119.597-24.082 41.524 0 81.762 8.082 119.602 24.082 36.559 15.438 69.441 37.598 97.68 65.84 28.242 28.239 50.398 61.039 65.84 97.598 16 37.84 24.16 78 24.16 119.519 0 36.641-6.321 72.321-18.879 106.243-2.321 6.32-2.082 13.281 0.719 19.359 9.441 20.801 39.359 19.84 47.281-1.602 14.238-38.636 22.078-80.398 22.078-124 0.082-197.918-160.399-358.32-358.399-358.32z m0 665.442c-11.359 0-22.64-0.641-33.761-1.84l89.601-82.719c2.16-2 5.2-2.801 8.16-2.16l118.399 26.801c-19.438 14.32-40.399 26.32-62.801 35.757-37.84 16.082-78.078 24.161-119.598 24.161zM295.495 527.419l108.48-47.039c23.762-10.238 41.039-31.519 46.082-56.879l10.957-55.121c0.883-4.32-1.918-8.559-6.316-9.437-4.321-0.883-8.563 1.918-9.442 6.32l-10.961 55.117c-4 20.242-17.757 37.199-36.718 45.359l-118 51.122c-0.563 0.242-1.039 0.558-1.52 0.878l-15.68-8.796c-4.242-2.403-4.722-6.243-4.64-8.321 0.078-2.082 0.961-5.922 5.437-7.84l112.723-48.402c18.238-7.84 31.437-24.078 35.277-43.519l24-120.321c0.961-4.801 4.481-6.398 6.563-6.961 0.64-0.16 1.519-0.316 2.558-0.316 2 0 4.481 0.637 6.563 3.117l80.879 92.242c13.039 14.879 32.64 22.399 52.32 20.078l121.84-14.32c4.879-0.559 7.519 2.32 8.641 4.082 1.117 1.758 2.718 5.359 0.16 9.52l-62.723 105.437c-10.16 17.043-11.199 38-2.961 56l51.281 111.442c2.082 4.402 0.161 7.839-1.199 9.441-1.359 1.598-4.238 4.238-9.039 3.117L570.616 646.22a60.182 60.182 0 0 0-54.16 14.48l-90.161 83.2c-3.597 3.281-7.437 2.562-9.359 1.761-1.922-0.718-5.281-2.718-5.762-7.601L399.975 615.9c-1.84-19.758-13.199-37.36-30.559-47.039l-73.921-41.442z m0 0" p-id="6148"></path></svg>