<?xml version="1.0" standalone="no"?><!DOCTYPE svg PUBLIC "-//W3C//DTD SVG 1.1//EN" "http://www.w3.org/Graphics/SVG/1.1/DTD/svg11.dtd"><svg t="1527565675251" class="icon" style="" viewBox="0 0 1024 1024" version="1.1" xmlns="http://www.w3.org/2000/svg" p-id="6446" xmlns:xlink="http://www.w3.org/1999/xlink" width="200" height="200"><defs><style type="text/css"></style></defs><path d="M278.09 385.6c19.52-122.18 126.5-216.43 253.5-216.43 141.55 0 256.71 115.16 256.71 256.71q0 4.62-0.17 9.24a260.36 260.36 0 0 1 48.77 10.69 263.62 263.62 0 0 1 29.91 11.69 334.1 334.1 0 0 0 1.49-31.62 336.7 336.7 0 0 0-672.54-24.12 281 281 0 0 1 30-8.87 286.74 286.74 0 0 1 52.33-7.29z" fill="#515151" p-id="6447"></path><path d="M138.83 727.94m-15 0a15 15 0 1 0 30 0 15 15 0 1 0-30 0Z" fill="#515151" p-id="6448"></path><path d="M967.15 539.16a260.85 260.85 0 0 0-100.35-82 263.62 263.62 0 0 0-29.91-11.69 260.36 260.36 0 0 0-48.77-10.69 264.1 264.1 0 0 0-82.08 3 40 40 0 1 0 15.33 78.52 183.66 183.66 0 0 1 35.11-3.38 182 182 0 0 1 87.39 341.63h-645.7A206.7 206.7 0 0 1 85.55 670.92c0-96.06 65.2-178.5 158.54-200.46a207.19 207.19 0 0 1 47.39-5.46c103 0 190.75 76.86 204.16 178.77A40 40 0 0 0 575 633.34 286 286 0 0 0 291.48 385q-6.7 0-13.39 0.32a286.74 286.74 0 0 0-52.31 7.28 281 281 0 0 0-30 8.87A285.62 285.62 0 0 0 5.55 670.92a285.94 285.94 0 0 0 166 259.61l0.53 0.25 0.27 0.12 0.29 0.13 0.14 0.06a39.67 39.67 0 0 0 6.52 2.25l0.62 0.14 1.22 0.27c0.48 0.1 1 0.18 1.45 0.26l0.4 0.07a39.7 39.7 0 0 0 6 0.47h664.62c1.31 0 2.62-0.08 3.93-0.21h0.15c0.48 0 1-0.11 1.43-0.18l0.74-0.1 1.09-0.2 1.1-0.22 0.83-0.19 1.41-0.36 0.57-0.16q0.9-0.27 1.78-0.57l0.22-0.07a39.76 39.76 0 0 0 4.57-1.94 262 262 0 0 0 147-235.44 259.9 259.9 0 0 0-51.28-155.75z" fill="#515151" p-id="6449"></path><path d="M295.42 489.79c-100 0-181.27 81.32-181.27 181.27a15 15 0 0 0 30 0c0-83.41 67.86-151.27 151.27-151.27a15 15 0 0 0 0-30z" fill="#515151" p-id="6450"></path></svg>