<?xml version="1.0" standalone="no"?><!DOCTYPE svg PUBLIC "-//W3C//DTD SVG 1.1//EN" "http://www.w3.org/Graphics/SVG/1.1/DTD/svg11.dtd"><svg t="1533115591550" class="icon" style="" viewBox="0 0 1025 1024" version="1.1" xmlns="http://www.w3.org/2000/svg" p-id="84905" xmlns:xlink="http://www.w3.org/1999/xlink" width="200.1953125" height="200"><defs><style type="text/css"></style></defs><path d="M801.706 723.729c-7.957-8.313-10.298-16.943-11.848-22.653-0.306-1.123-0.688-2.531-1.024-3.496-8.082 1.212-34.538 16.542-63.298 33.538-35.202 20.837-86.721 42.206-153.127 63.514a7.501 7.501 0 0 1-2.291 0.359c-0.197 0-0.393-0.026-0.587-0.042l-14.49 5.092c-12.904 3.961-24.235 7.322-34.637 10.275-2.261 0.683-4.506 1.318-6.733 1.95l-1.753 0.497-1.278 0.35c-2.49 0.678-4.844 1.316-7.169 2.01a4.414 4.414 0 0 1-0.164 0.047c-17.391 4.748-32.396 8.706-44.591 11.763a5495.8 5495.8 0 0 0-8.177 2.071c-1.074 0.26-2.109 0.514-3.106 0.759-1.822 0.448-3.523 0.866-5.111 1.231-2.104 0.517-4.008 0.976-5.699 1.378 41.274 87.055 53.872 97.36 83.055 121.241 2.612 2.138 5.354 4.381 8.245 6.783 8.864 7.345 38.416 19.667 136.733 19.667 2.878 0 5.718-0.012 8.513-0.031 25.21-0.178 46.771-1.147 57.495-1.718a669.665 669.665 0 0 0-0.153-4.354 841.338 841.338 0 0 1-0.229-8.278 58.679 58.679 0 0 1-0.075-2.01 1491.602 1491.602 0 0 1-0.589-43.452c-0.001-2.896 0.006-5.611 0.022-8.342 0.025-2.865 0.06-5.661 0.112-8.389 0.375-25.936 1.627-48.627 3.722-67.437 4.47-40.631 11.755-54.918 16.184-59.93 8.888-20.594 27.612-30.568 41.371-37.896 5.07-2.701 13.559-7.224 14.148-9.37-0.001-0.014-0.073-1.558-3.471-5.127z" fill="#515151" p-id="84906"></path><path d="M440.671 798.811c1.349-0.34 2.798-0.71 4.312-1.097l3.819-0.974c12.884-3.175 27.271-6.938 41.625-10.893a579.538 579.538 0 0 0 7.29-2.022c-3.142-5.797-5.814-11.188-8.211-16.546-89.467-200.602-188.172-264.714-226.457-282.968a7.5 7.5 0 0 1-3.616-3.699c-41.312-92.114-84.496-222.604-84.927-223.911a7.5 7.5 0 0 1 0.943-6.601l36.96-53.73a7.5 7.5 0 0 1 9.148-2.637c5.058 2.181 10.844 4.517 17.688 7.141l15.61 5.592c103.817 35.343 255.882 51.809 325.964 51.809 24.355 0 33.257-1.916 36.149-2.851 1.363-7.048 1.184-12.307 0.728-15.654-121.85-4.519-231.479-29.389-302.421-49.629-60.134-17.157-103.341-33.968-120.267-40.895-8.691 24.587-30.835 50.436-49.002 71.643-7.318 8.543-14.231 16.613-19.056 23.222-5.917 8.105-6.538 11.147-6.597 11.822 0.853 2.608 1.529 3.966 2.243 5.4 3.892 7.82 5.668 11.389 12.203 100.741 0.452 5.925 1.467 11.995 3.017 18.041a7.5 7.5 0 0 1-11.69 7.918l-10-7.308a7.497 7.497 0 0 1-2.902-4.456 146.577 146.577 0 0 1-2.76-17.719c-3.431-38.18-8.847-63.17-12.431-79.707l-0.054-0.249c-6.048-28.136-7.674-35.698 9.222-52.23 28.419-27.779 67.301-79.583 80.563-114.835a7.499 7.499 0 0 1 10.122-4.188c21.653 9.838 80.337 35.211 157.403 58.271 96.995 29.022 186.646 43.738 266.463 43.738l2.475-0.006-0.316-42-0.687-0.112c-88.832-14.469-185.632-33.828-258.94-51.786-146.44-35.869-159.49-55.574-163.78-62.052-3.784-5.719-8.905-8.618-15.224-8.618l-0.207 0.001c-21.453 0.154-57.99 35.994-95.354 93.533-35.205 54.215-63.99 116.681-71.626 155.436-9.588 48.756-10 73.736-1.473 89.093 0.335 0.603 0.585 1.249 0.743 1.92 1.836 7.789 4.458 16.853 7.025 25.51l0.092 0.313c6.542 22.307 15.5 52.857 24.312 101.177 24.27 134.14 60.913 435.66 61.259 438.56l0.085 0.685 38.916 2.586s-0.038-0.964-0.038-0.995c-0.049-1.838-8.716-245.276-13.339-319.467-0.837-12.175-2.655-24.928-4.451-36.988l-0.103-0.715c-4.25-29.729-8.264-57.808 4.826-73.143 7.105-8.248 19.242-12.432 36.074-12.432 20.711 0 48.895 5.975 86.162 18.263 88.735 29.283 128.893 134.962 167.729 237.16l0.179 0.474c4.807 12.762 8.944 23.579 12.815 33.5 0.577-0.144 1.165-0.289 1.765-0.436z" fill="#515151" p-id="84907"></path><path d="M762.071 972.512c-0.114-2.654-0.21-5.327-0.3-7.857a7.291 7.291 0 0 0-0.016-0.85c-0.45-17.532-0.644-31.321-0.607-43.368 0.01-1.383 0.015-2.856 0.02-4.314 0.005-1.396 0.009-2.777 0.02-4.07v-0.116c-0.024-2.811 0.046-5.405 0.113-7.915 0.43-29.709 1.981-54.535 4.62-73.952 33.032-21.766 52.57-41.211 59.692-59.395 10.727-27.437 20.151-40.771 28.815-40.771 3.594 0 7.879 1.873 12.417 3.855 4.323 1.89 9.225 4.029 14.62 5.039 1.066 0.196 1.761 0.41 2.189 0.574-0.252 1.9-1.775 5.753-2.929 8.667-3.604 9.118-8.467 21.417-5.337 35.566-2.027 7.641-0.368 24.789 23.177 61.752a7.504 7.504 0 0 0 6.18 3.47c33.774 0.651 69.689 2.036 104.854 10.951a7.476 7.476 0 0 0 3.448 0.055 6.453 6.453 0 0 1 1.37-0.157c2.335 0 3.005 1.47 3.227 1.953 1.096 2.461 0.396 13.128-10.289 35.444-7.927 16.552-17.819 32.151-22.808 37.673-3.032 3.345-22.719 11.595-77.196 21.229-43.452 7.686-95.965 13.852-145.269 17.089 0.003-0.001-0.009-0.505-0.011-0.552z m154.156-121.828a7.5 7.5 0 0 0-6.13 11.819c4.44 6.304 9.203 12.793 14.56 19.839a7.494 7.494 0 0 0 7.918 2.705 988.179 988.179 0 0 0 49.957-14.858 7.501 7.501 0 0 0-1.197-14.544c-22.93-3.5-45.683-4.471-64.915-4.959l-0.193-0.002z" fill="#515151" p-id="84908"></path><path d="M730.279 965.681a58.679 58.679 0 0 1-0.075-2.01 1491.602 1491.602 0 0 1-0.589-43.452c-0.001-1.583 0.002-3.108 0.006-4.614-97.746 5.979-191.122 5.831-243.987 5.015 10.77 13.946 20.663 22.046 34.042 32.994 2.612 2.138 5.354 4.381 8.245 6.783 8.864 7.345 38.416 19.667 136.733 19.667 2.878 0 5.718-0.012 8.513-0.031 25.21-0.178 46.771-1.147 57.495-1.718a669.665 669.665 0 0 0-0.153-4.354 876.153 876.153 0 0 1-0.23-8.28z" fill="#515151" p-id="84909"></path><path d="M185.28 52.275c2.357 0 5.852 0.545 8.973 5.263 5.114 7.722 16.63 18.6 60.662 34.306 26.931 9.606 63.127 19.999 107.584 30.889 71.963 17.628 166.494 36.601 253.959 50.993l0.213 28.107c-77.809-0.61-164.991-15.205-259.23-43.403-76.626-22.928-134.938-48.139-156.45-57.914a14.995 14.995 0 0 0-11.939-0.205 14.998 14.998 0 0 0-8.306 8.58c-12.899 34.29-50.938 84.893-78.791 112.118-19.85 19.422-17.349 31.057-11.301 59.189l0.051 0.237c3.545 16.356 8.902 41.073 12.29 78.788l0.006 0.065a154.025 154.025 0 0 0 2.897 18.583 15 15 0 0 0 5.805 8.911l10 7.308a14.985 14.985 0 0 0 8.851 2.889 15.002 15.002 0 0 0 14.53-18.725c-1.441-5.624-2.385-11.259-2.8-16.703-6.644-90.849-8.496-94.569-12.97-103.559a34.176 34.176 0 0 1-1-2.13c0.757-1.52 2.462-4.425 6.246-9.403 4.539-5.971 10.663-13.121 17.147-20.689 16.835-19.652 36.996-43.188 47.458-66.736 20.274 8.073 60.06 22.916 114.055 38.32 69.999 19.971 177.452 44.425 297.275 49.633a44.556 44.556 0 0 1-0.173 2.229c-4.634 0.721-13.47 1.561-29.501 1.561-69.582 0-220.532-16.339-323.547-51.409a14.988 14.988 0 0 0-4.834-0.804c-1.278 0-2.539 0.165-3.756 0.48a14.994 14.994 0 0 0-6.751-5.171c-6.745-2.586-12.438-4.885-17.405-7.026a15 15 0 0 0-18.296 5.273l-36.96 53.73a15 15 0 0 0-1.886 13.201c0.433 1.311 43.738 132.167 85.206 224.629a14.998 14.998 0 0 0 7.231 7.402c16.653 7.939 50.668 27.729 91.363 71.064 48.804 51.966 93.036 122.011 131.479 208.201a231.339 231.339 0 0 0 4.124 8.723c-13.728 3.766-27.447 7.348-39.779 10.387l-0.094 0.023c-1.161 0.294-2.304 0.586-3.416 0.869a3231.786 3231.786 0 0 1-10.404-27.293l-0.172-0.452c-39.459-103.84-80.262-211.215-172.393-241.619-38.035-12.541-66.986-18.639-88.508-18.639-19.114 0-33.163 5.06-41.757 15.036l-0.043 0.051c-15.268 17.887-11.021 47.595-6.524 79.048l0.102 0.715 0.013 0.087c1.766 11.855 3.558 24.425 4.377 36.313 4.18 67.127 11.607 270.994 13.071 311.955l-24.433-1.623c-5.124-41.853-38.192-309.353-60.659-433.527-8.88-48.695-17.903-79.464-24.491-101.93l-0.104-0.355c-2.53-8.533-5.118-17.477-6.91-25.078a14.96 14.96 0 0 0-1.486-3.84c-7.472-13.455-6.813-37.792 2.274-83.999 7.469-37.908 35.825-99.315 70.558-152.804 17.663-27.2 35.491-50.015 51.559-65.981 21.837-21.699 33.541-24.109 37.584-24.138h0.126m598.543 654.985c1.735 5.625 4.706 12.999 11.15 20.232-2.297 1.355-5.125 2.861-7.474 4.113-13.709 7.302-34.155 18.191-44.268 40.496-7.904 9.848-13.686 31.018-17.215 63.109-2.12 19.051-3.389 41.977-3.768 68.143a767.808 767.808 0 0 0-0.113 8.488c-0.018 2.73-0.023 5.463-0.022 8.35-0.021 13.688 0.166 28.007 0.559 42.563l0.005 0.17c0.014 0.316 0.021 0.629 0.028 0.939 0.016 0.631 0.034 1.336 0.077 2.112 0.045 1.899 0.089 3.609 0.136 5.212a1291.722 1291.722 0 0 1-49.81 1.342c-2.778 0.021-5.595 0.03-8.457 0.03-31.949 0-59.23-1.34-81.087-3.981-34.649-4.189-46.738-10.545-50.849-13.95-2.926-2.43-5.653-4.662-8.293-6.821-15.022-12.294-24.949-20.417-36.521-36.634-10.821-15.164-23.229-37.667-40.526-73.678 0.602-0.146 1.212-0.297 1.835-0.449a843.646 843.646 0 0 1 3.262-0.798c2.495-0.636 5.2-1.322 8.056-2.041 12.254-3.072 27.311-7.044 44.751-11.805 0.108-0.03 0.219-0.063 0.328-0.095 2.241-0.667 4.554-1.296 7.002-1.963l1.279-0.348 0.159-0.045 1.653-0.47a410.236 410.236 0 0 0 6.811-1.973c10.431-2.963 21.791-6.334 34.729-10.304a15.001 15.001 0 0 0 7.795-5.607c1.615 0.582 3.333 0.891 5.081 0.891a14.99 14.99 0 0 0 4.583-0.72c66.938-21.479 118.973-43.08 154.646-64.196 21.862-12.92 35.205-20.538 44.615-25.472 4.29-2.245 7.489-3.786 9.863-4.84M185.28 37.275l-0.26 0.001c-54.665 0.393-158.15 173.132-174.287 255.023C0.688 343.385 0.467 369.2 10.063 386.48c1.766 7.489 4.159 15.885 7.128 25.899 6.499 22.164 15.439 52.566 24.22 100.714 24.124 133.33 60.833 435.099 61.197 438.15l0.851 6.831 53.413 3.549-0.36-9.214c-0.056-2.428-8.744-245.818-13.354-319.799-0.857-12.462-2.674-25.213-4.509-37.535-4.045-28.305-7.979-55.062 2.982-67.901 5.643-6.551 15.771-9.825 30.392-9.825 19.736 0 47.661 5.965 83.811 17.885 85.471 28.207 124.949 132.389 163.24 233.153 5.044 13.396 10.108 26.66 15.241 39.689 2.385-0.582 5.105-1.231 8.185-1.992 2.445-0.614 5.218-1.332 8.098-2.062 11.383-2.806 25.631-6.484 41.804-10.938 2.665-0.727 5.4-1.475 8.18-2.279 2.724-0.763 5.518-1.53 8.353-2.317-4.48-7.742-8.774-15.764-12.576-24.264-90.409-202.712-190.861-267.982-230.08-286.682-41.631-92.827-84.648-223.191-84.648-223.191l36.96-53.73c5.73 2.47 11.791 4.886 17.972 7.257-38.212 95.925 11.733 184.094 73.868 261.396 39.75 49.49 84.748 94.587 121.721 146.299 38.742 54.247 62.957 114.73 107.632 163.908 2.063 2.233 4.364 4.396 6.547 6.653 2.176 2.212 4.29 4.521 6.514 6.735-11.878 3.646-23.511 7.115-34.545 10.248-2.809 0.849-5.598 1.626-8.352 2.41-2.939 0.802-5.794 1.565-8.613 2.404-17.109 4.672-32.242 8.666-44.448 11.727-2.884 0.727-5.601 1.416-8.106 2.054-3.027 0.731-5.747 1.422-8.193 1.983-9.276 2.282-14.723 3.438-14.723 3.438 48.974 104.444 59.926 108.021 97.274 139.035 21.257 17.614 87.917 21.394 141.519 21.394 2.899 0 5.752-0.012 8.565-0.031 36.606-0.258 65.189-2.152 65.189-2.152-0.068-1.178-0.089-2.217-0.158-3.436-0.046-2.83-0.144-5.516-0.246-8.232a825.971 825.971 0 0 1-0.23-8.345c-0.063-1.006-0.066-1.995-0.105-3.015-0.412-15.29-0.573-29.31-0.553-42.136-0.001-2.88 0.006-5.578 0.022-8.274 0.024-2.837 0.059-5.605 0.111-8.346 0.406-28.104 1.803-49.886 3.678-66.724 5.502-50.028 15.079-56.488 15.079-56.488 15.897-39.882 74.827-36.929 51.117-61.843-13.32-13.915-7.675-28.539-17.356-28.54h-0.068c-7.732 0.038-24.86 9.177-67.982 34.661-40.556 24.006-98.097 45.659-151.598 62.826-0.445-0.955-1.022-1.946-2.028-2.776-1.363-1.282-2.608-2.771-4.014-4.093-2.281-2.143-4.411-4.39-6.557-6.61-43.099-44.271-68.549-98.479-100.569-151.12-25.395-41.692-59.796-78.185-91.832-114.838-71.428-81.729-158.126-182.247-112.679-294.483 102.65 34.945 254.761 52.209 328.381 52.209 25.851 0 42.014-2.127 42.972-6.364 4.048-17.628-0.19-26.942-0.19-26.942-238.783-7.584-433.447-93.393-433.447-93.393-10.033 45.77-82.3 102.333-77.03 118.871 5.334 16.62 6.157-5.256 14.199 104.698 0.499 6.54 1.606 12.999 3.229 19.333l-10-7.308c-1.31-6-2.121-11.515-2.618-16.79-3.488-38.824-8.99-64.102-12.622-80.86-5.903-27.46-6.797-31.661 7.132-45.291 26.858-26.253 67.937-79.27 82.339-117.558 42.77 19.433 237.188 102.68 426.968 102.68 0.558 0 1.088 0 1.646-0.002l8.386-0.042-0.422-55.841-6.933-1.137C469.224 134.549 229.896 84.186 206.76 49.253c-5.187-7.836-12.68-11.978-21.48-11.978z" fill="#515151" p-id="84910"></path><path d="M761.179 913.461l-0.011 2.66c-0.005 1.458-0.01 2.933-0.02 4.313-0.035 12.048 0.157 25.836 0.607 43.369 0.021 0.279 0.025 0.563 0.016 0.85 0.09 2.53 0.186 5.203 0.3 7.857l0.014 0.553c49.304-3.237 101.815-9.403 145.268-17.089 54.479-9.635 74.164-17.885 77.197-21.229 4.987-5.521 14.881-21.121 22.808-37.673 7.02-14.66 3.421-35.991 4.144-41.573-63.193 25.341-153.833 50.738-250.323 57.962z" fill="#515151" p-id="84911"></path><path d="M854.428 737.4c2.026 0.001 5.783 1.642 9.416 3.229 3.087 1.349 6.445 2.815 10.169 3.995l-0.259 0.654c-3.604 9.121-8.882 22.469-6.064 38.049-2.743 13.968 5.476 36.109 24.553 66.057a14.997 14.997 0 0 0 9.159 6.529 15 15 0 0 0 2.564 10.909c4.493 6.377 9.309 12.938 14.718 20.057a15.004 15.004 0 0 0 15.838 5.409 994.377 994.377 0 0 0 50.338-14.972 15.003 15.003 0 0 0 10.302-13.141c4.211 0.855 8.412 1.809 12.598 2.869 0.806 0.204 1.621 0.34 2.443 0.408-0.835 4.874-3.57 14.205-10.857 28.943-7.922 16.021-16.366 28.731-20.067 32.99-4.159 3.046-25.161 10.896-76.813 19.827-40.142 6.942-87.879 12.601-133.172 15.835l-0.019-0.523c0.002-0.273-0.003-0.546-0.016-0.818-0.451-17.491-0.645-31.229-0.608-43.216 0.01-1.411 0.015-2.884 0.02-4.339 0.005-1.391 0.009-2.765 0.02-4.051l-0.001-0.233c-0.022-2.673 0.046-5.202 0.111-7.646l0.004-0.191c0.398-27.639 1.781-51.01 4.113-69.609 32.646-21.904 52.196-41.902 59.687-61.021 6.017-15.392 11.637-26.195 16.703-32.112 0.998-1.17 3.5-3.888 5.12-3.888m0.002-15c-10.533-0.001-21.581 9.169-35.8 45.536-7.354 18.775-30.298 38.691-59.659 57.712-2.478 16.841-4.645 41.928-5.167 78.167-0.075 2.769-0.142 5.323-0.116 8.183-0.02 2.643-0.02 5.647-0.038 8.415-0.039 13.309 0.204 27.853 0.619 43.925 0.015 0.014 0.016 0.053-0.007 0.159 0.096 2.674 0.195 5.515 0.316 8.336 0.064 2.732 0.111 5.359 0.213 8.203 109.643-6.558 222.229-26.822 235.324-41.264 11.269-12.474 41.296-65.671 34.354-81.258-1.859-4.078-5.642-6.34-10.049-6.34-0.967 0-1.963 0.109-2.976 0.331-35.081-8.895-70.69-10.487-106.553-11.181-29.778-46.749-21.644-57.237-21.644-57.237-7.788-27.182 21.598-48.608-0.403-52.665-10.275-1.92-19.147-9.02-28.414-9.022z m76.196 155.404c-5.363-7.057-10.102-13.521-14.398-19.62 21.483 0.546 42.816 1.646 63.975 4.875a976.576 976.576 0 0 1-49.577 14.745z" fill="#515151" p-id="84912"></path><path d="M101.482 648.002c-7.157 0-13.492-5.141-14.761-12.433L52.5 438.499c-1.419-8.162 4.046-15.93 12.208-17.35 8.168-1.415 15.929 4.046 17.349 12.208l34.221 197.07c1.419 8.162-4.046 15.93-12.208 17.35a15.02 15.02 0 0 1-2.588 0.225z" fill="#515151" p-id="84913"></path></svg>